<svg width="23" height="18" viewBox="0 0 23 18" fill="none" xmlns="http://www.w3.org/2000/svg">
<path d="M19.4609 1.49591C18.0042 0.798593 16.427 0.292475 14.7841 5.17344e-05C14.7697 -0.00042132 14.7554 0.00235455 14.7421 0.00818421C14.7289 0.0140139 14.717 0.0227558 14.7074 0.0337931C14.5103 0.404946 14.2803 0.888569 14.1269 1.25972C12.3844 0.989793 10.6122 0.989793 8.86966 1.25972C8.71632 0.877322 8.48632 0.404946 8.27822 0.0337931C8.26726 0.011299 8.23441 5.17344e-05 8.20155 5.17344e-05C6.55865 0.292475 4.99241 0.798593 3.52475 1.49591C3.5138 1.49591 3.50285 1.50716 3.49189 1.5184C0.512765 6.09596 -0.308686 10.5498 0.0965633 14.9586C0.0965633 14.9811 0.107516 15.0036 0.129421 15.0149C2.1009 16.4995 3.99572 17.3992 5.86863 17.9953C5.90148 18.0066 5.93434 17.9953 5.94529 17.9728C6.3834 17.3543 6.7777 16.7019 7.11723 16.0159C7.13914 15.9709 7.11723 15.9259 7.07342 15.9146C6.44912 15.6672 5.85767 15.3748 5.27718 15.0374C5.23337 15.0149 5.23337 14.9474 5.26623 14.9136C5.38671 14.8237 5.50719 14.7224 5.62767 14.6325C5.64957 14.61 5.68243 14.61 5.70434 14.6212C9.47206 16.387 13.5355 16.387 17.2594 14.6212C17.2813 14.61 17.3142 14.61 17.3361 14.6325C17.4566 14.7337 17.577 14.8237 17.6975 14.9249C17.7413 14.9586 17.7413 15.0261 17.6866 15.0486C17.117 15.3973 16.5146 15.6784 15.8903 15.9259C15.8465 15.9371 15.8356 15.9934 15.8465 16.0271C16.197 16.7132 16.5913 17.3655 17.0185 17.9841C17.0513 17.9953 17.0842 18.0066 17.117 17.9953C19.0009 17.3992 20.8957 16.4995 22.8672 15.0149C22.8891 15.0036 22.9 14.9811 22.9 14.9586C23.382 9.86372 22.1005 5.44363 19.5047 1.5184C19.4938 1.50716 19.4828 1.49591 19.4609 1.49591ZM7.68677 12.2706C6.55865 12.2706 5.61671 11.2021 5.61671 9.88621C5.61671 8.57031 6.53674 7.50184 7.68677 7.50184C8.84776 7.50184 9.76778 8.58155 9.75683 9.88621C9.75683 11.2021 8.8368 12.2706 7.68677 12.2706ZM15.3208 12.2706C14.1927 12.2706 13.2507 11.2021 13.2507 9.88621C13.2507 8.57031 14.1708 7.50184 15.3208 7.50184C16.4818 7.50184 17.4018 8.58155 17.3908 9.88621C17.3908 11.2021 16.4818 12.2706 15.3208 12.2706Z" fill="#CCFF00"/>
</svg>
