<svg width="23" height="18" viewBox="0 0 23 18" fill="none" xmlns="http://www.w3.org/2000/svg">
<path d="M11.5 1V13M11.5 13L7.5 9M11.5 13L15.5 9" stroke="black" stroke-width="2" stroke-linecap="round" stroke-linejoin="round"/>
<path d="M7.5 3H3.5C2.96957 3 2.46086 3.21071 2.08579 3.58579C1.71071 3.96086 1.5 4.46957 1.5 5V15C1.5 15.5304 1.71071 16.0391 2.08579 16.4142C2.46086 16.7893 2.96957 17 3.5 17H19.5C20.0304 17 20.5391 16.7893 20.9142 16.4142C21.2893 16.0391 21.5 15.5304 21.5 15V5C21.5 4.46957 21.2893 3.96086 20.9142 3.58579C20.5391 3.21071 20.0304 3 19.5 3H15.5" stroke="black" stroke-width="2" stroke-linecap="round" stroke-linejoin="round"/>
</svg>
