<svg width="21" height="22" viewBox="0 0 21 22" fill="none" xmlns="http://www.w3.org/2000/svg">
<path d="M10.5 0C4.704 0 0 4.928 0 11C0 17.072 4.704 22 10.5 22C16.296 22 21 17.072 21 11C21 4.928 16.296 0 10.5 0ZM15.372 7.48C15.2145 9.218 14.532 13.442 14.1855 15.389C14.0385 16.214 13.7445 16.489 13.4715 16.522C12.8625 16.577 12.4005 16.104 11.8125 15.697C10.8885 15.059 10.3635 14.663 9.471 14.047C8.4315 13.332 9.1035 12.936 9.702 12.298C9.8595 12.133 12.5475 9.57 12.6 9.339C12.6073 9.30401 12.6063 9.26769 12.5972 9.23318C12.588 9.19868 12.571 9.16704 12.5475 9.141C12.4845 9.086 12.4005 9.108 12.327 9.119C12.2325 9.141 10.7625 10.164 7.896 12.188C7.476 12.485 7.098 12.639 6.762 12.628C6.384 12.617 5.67 12.408 5.1345 12.221C4.473 12.001 3.9585 11.88 4.0005 11.495C4.0215 11.297 4.284 11.099 4.7775 10.89C7.8435 9.493 9.8805 8.569 10.899 8.129C13.818 6.853 14.4165 6.633 14.8155 6.633C14.8995 6.633 15.099 6.655 15.225 6.765C15.33 6.853 15.3615 6.974 15.372 7.062C15.3615 7.128 15.3825 7.326 15.372 7.48Z" fill="black"/>
</svg>
